{"asset":{"version":"2.0","generator":"THREE.GLTFExporter"},"scenes":[{"nodes":[0],"name":"AuxScene"}],"scene":0,"nodes":[{"mesh":0}],"bufferViews":[{"buffer":0,"byteOffset":0,"byteLength":3672,"target":34962,"byteStride":12},{"buffer":0,"byteOffset":3672,"byteLength":3672,"target":34962,"byteStride":12}],"buffers":[{"byteLength":7344,"uri":"data:application/octet-stream;base64,"}],"accessors":[{"bufferView":0,"componentType":5126,"count":306,"max":[9.700000762939453,5.0169878005981445,9.700000762939453],"min":[-9.699999809265137,0.11698699742555618,-9.699999809265137],"type":"VEC3"},{"bufferView":1,"componentType":5126,"count":306,"max":[0,1,0.9805810451507568],"min":[0,0.19611424207687378,0],"type":"VEC3"}],"materials":[{"pbrMetallicRoughness":{"baseColorFactor":[0.5019607843137255,0.5019607843137255,0.5019607843137255,1],"metallicFactor":0,"roughnessFactor":1}}],"meshes":[{"primitives":[{"mode":4,"attributes":{"POSITION":0,"NORMAL":1},"material":0}]}]}